<svg width="18" height="22" viewBox="0 0 18 22" fill="none" xmlns="http://www.w3.org/2000/svg">
<g clip-path="url(#clip0_3113_35186)">
<path fill-rule="evenodd" clip-rule="evenodd" d="M6.22893 2.77601C6.56383 1.64942 7.54604 0.5 9.00092 0.5C10.4562 0.5 11.4374 1.64947 11.7749 2.77394C11.7765 2.77603 11.7788 2.77868 11.7817 2.78172C11.7886 2.78895 11.7965 2.79559 11.8039 2.80075C11.8095 2.80467 11.8129 2.80636 11.8133 2.80656C12.6602 3.15582 13.657 3.71371 14.4367 4.73514C15.2226 5.76478 15.7339 7.19413 15.7339 9.18828C15.7339 11.1765 15.9433 12.2668 16.2517 13.0153C16.5221 13.6716 16.8777 14.103 17.3837 14.7168C17.4576 14.8065 17.5347 14.9 17.6152 14.9987L17.6154 14.999C18.5479 16.1431 17.6674 17.75 16.2309 17.75H12.7448C12.7448 18.7446 12.3504 19.6984 11.6483 20.4016C10.9461 21.1049 9.99387 21.5 9.00092 21.5C8.00797 21.5 7.05569 21.1049 6.35357 20.4016C5.65145 19.6984 5.25701 18.7446 5.25701 17.75H1.77564C0.341806 17.75 -0.553614 16.1513 0.38664 14.9987C0.467218 14.9 0.544382 14.8063 0.618334 14.7166C1.12424 14.1029 1.47986 13.6714 1.75051 13.0151C2.0592 12.2666 2.26913 11.1763 2.2703 9.18828M6.75457 17.75C6.75457 18.3467 6.99124 18.919 7.41251 19.341C7.83378 19.7629 8.40515 20 9.00092 20C9.59669 20 10.1681 19.7629 10.5893 19.341C11.0106 18.919 11.2473 18.3467 11.2473 17.75H6.75457ZM1.77564 16.25C1.62174 16.25 1.55246 16.1791 1.52463 16.1245C1.5086 16.093 1.5038 16.0625 1.50611 16.0369C1.50815 16.0144 1.51648 15.9844 1.54629 15.9479L1.54633 15.9478C1.61865 15.8592 1.69151 15.7712 1.76445 15.6832C2.26638 15.0772 2.77226 14.4666 3.13465 13.5878C3.55121 12.5776 3.76667 11.2622 3.76787 9.18871V9.18828C3.76787 7.46069 4.20446 6.36809 4.7564 5.64523C5.31451 4.91428 6.04577 4.48863 6.76107 4.19357L6.76124 4.1935C7.14248 4.03643 7.52287 3.68648 7.66025 3.21761L7.66079 3.21574C7.87386 2.48152 8.42443 2 9.00092 2C9.57743 2 10.1282 2.48116 10.344 3.2169L10.3446 3.2188C10.4811 3.67986 10.8575 4.03471 11.243 4.19353C11.9568 4.48786 12.6884 4.91434 13.247 5.64619C13.7994 6.3699 14.2363 7.4629 14.2363 9.18828C14.2363 11.2617 14.4511 12.5773 14.8674 13.5876C15.2296 14.4665 15.7355 15.0773 16.2375 15.6833C16.3104 15.7713 16.3832 15.8592 16.4555 15.9478C16.5024 16.0055 16.5062 16.0652 16.4758 16.1254C16.4474 16.1814 16.3792 16.25 16.2309 16.25H1.77564ZM6.22893 2.77601C6.22763 2.77755 6.22602 2.77936 6.22404 2.78141C6.21767 2.78803 6.21013 2.79442 6.20262 2.79961C6.19564 2.80443 6.19145 2.80631 6.19145 2.80631L6.191 2.8065C5.34374 3.15597 4.34655 3.71281 3.56684 4.73399C2.78097 5.76324 2.27038 7.19238 2.2703 9.18785" fill="#2FAF5D"/>
</g>
<defs>
<clipPath id="clip0_3113_35186">
<rect width="18" height="21" fill="white" transform="translate(0 0.5)"/>
</clipPath>
</defs>
</svg>
