<svg width="24" height="25" viewBox="0 0 24 25" fill="none" xmlns="http://www.w3.org/2000/svg">
<g clip-path="url(#clip0_4076_13779)">
<path d="M1.84033 0.5V24.5H16.5784L22.1595 18.919V0.5H1.84033ZM16.9956 22.0693V19.3361H19.7288L16.9956 22.0693ZM20.7356 17.9124H15.5719V23.0763H3.26407V1.92373H20.7356V17.9124Z" fill="#1CA74E"/>
<path d="M14.2291 7.68472C14.507 7.26364 14.6693 6.75988 14.6693 6.21871C14.6693 4.74683 13.4718 3.54932 11.9999 3.54932C10.5279 3.54932 9.33047 4.74683 9.33047 6.21871C9.33047 6.75988 9.49276 7.26364 9.77063 7.68472C8.59552 8.14827 7.76147 9.29422 7.76147 10.632V13.2118H16.2382V10.632H16.2383C16.2383 9.29422 15.4042 8.14827 14.2291 7.68472ZM11.9999 4.973C12.6868 4.973 13.2455 5.5318 13.2455 6.21866C13.2455 6.90552 12.6868 7.46432 11.9999 7.46432C11.313 7.46432 10.7542 6.90552 10.7542 6.21866C10.7542 5.53185 11.3131 4.973 11.9999 4.973ZM14.8146 11.788H9.18526V10.632C9.18526 9.67035 9.96755 8.88805 10.9292 8.88805H13.0706C14.0323 8.88805 14.8146 9.67039 14.8146 10.632V11.788Z" fill="#1CA74E"/>
<path d="M16.2843 14.9062H7.84961V16.33H16.2843V14.9062Z" fill="#1CA74E"/>
<path d="M13.8501 17.9121H7.84961V19.3358H13.8501V17.9121Z" fill="#1CA74E"/>
</g>
<defs>
<clipPath id="clip0_4076_13779">
<rect width="24" height="24" fill="white" transform="translate(0 0.5)"/>
</clipPath>
</defs>
</svg>
